<svg version="1.1" viewBox="0.0 0.0 405.1469816272966 525.3149606299213" fill="none" stroke="none" stroke-linecap="square" stroke-miterlimit="10" xmlns:xlink="http://www.w3.org/1999/xlink" xmlns="http://www.w3.org/2000/svg"><clipPath id="p.0"><path d="m0 0l405.14697 0l0 525.31494l-405.14697 0l0 -525.31494z" clip-rule="nonzero"/></clipPath><g clip-path="url(#p.0)"><path fill="#000000" fill-opacity="0.0" d="m0 0l405.14697 0l0 525.31494l-405.14697 0z" fill-rule="evenodd"/><path fill="#000000" fill-opacity="0.0" d="m9.782152 124.68241l0 0c0 -62.760418 50.72931 -113.637794 113.30709 -113.637794l0 0c30.05091 0 58.87101 11.972518 80.1202 33.283737c21.249207 21.311222 33.18689 50.215443 33.18689 80.35405l0 0c0 62.76043 -50.729324 113.637794 -113.30709 113.637794l0 0c-62.577778 0 -113.30709 -50.877365 -113.30709 -113.637794z" fill-rule="evenodd"/><path stroke="#ffffff" stroke-width="2.0" stroke-linejoin="round" stroke-linecap="butt" d="m9.782152 124.68241l0 0c0 -62.760418 50.72931 -113.637794 113.30709 -113.637794l0 0c30.05091 0 58.87101 11.972518 80.1202 33.283737c21.249207 21.311222 33.18689 50.215443 33.18689 80.35405l0 0c0 62.76043 -50.729324 113.637794 -113.30709 113.637794l0 0c-62.577778 0 -113.30709 -50.877365 -113.30709 -113.637794z" fill-rule="evenodd"/><path fill="#000000" fill-opacity="0.0" d="m39.95538 124.68241l0 0c0 -46.05272 37.220295 -83.38582 83.133865 -83.38582l0 0c22.04847 0 43.193886 8.785267 58.784508 24.423145c15.590622 15.637871 24.34935 36.84738 24.34935 58.962677l0 0c0 46.052727 -37.22029 83.385826 -83.13386 83.385826l0 0c-45.913567 0 -83.133865 -37.3331 -83.133865 -83.385826z" fill-rule="evenodd"/><path stroke="#ffffff" stroke-width="2.0" stroke-linejoin="round" stroke-linecap="butt" d="m39.95538 124.68241l0 0c0 -46.05272 37.220295 -83.38582 83.133865 -83.38582l0 0c22.04847 0 43.193886 8.785267 58.784508 24.423145c15.590622 15.637871 24.34935 36.84738 24.34935 58.962677l0 0c0 46.052727 -37.22029 83.385826 -83.13386 83.385826l0 0c-45.913567 0 -83.133865 -37.3331 -83.133865 -83.385826z" fill-rule="evenodd"/><path fill="#ffffff" d="m106.7799 139.08241l0 -29.203117l3.59375 0l0 12.515625l4.3125 0l6.484375 -12.515625l3.921875 0l-7.234375 14.046875l7.640625 15.156242l-4.125 0l-6.796875 -13.515617l-4.203125 0l0 13.515617l-3.59375 0z" fill-rule="nonzero"/><path fill="#ffffff" d="m133.9205 121.55117l0 -5.203125l-5.09375 0l0 -2.125l5.09375 0l0 -5.203125l2.34375 0l0 5.203125l5.09375 0l0 2.125l-5.09375 0l0 5.203125l-2.34375 0z" fill-rule="nonzero"/><path fill="#000000" fill-opacity="0.0" d="m257.01068 124.68647l0 0c0 -31.458488 25.424591 -56.960632 56.787415 -56.960632l0 0c15.060944 0 29.505035 6.00119 40.154755 16.68338c10.649689 10.68219 16.63263 25.17035 16.63263 40.277252l0 0c0 31.458488 -25.424591 56.960625 -56.787384 56.960625l0 0c-31.362823 0 -56.787415 -25.502136 -56.787415 -56.960625z" fill-rule="evenodd"/><path stroke="#ffffff" stroke-width="2.0" stroke-linejoin="round" stroke-linecap="butt" d="m257.01068 124.68647l0 0c0 -31.458488 25.424591 -56.960632 56.787415 -56.960632l0 0c15.060944 0 29.505035 6.00119 40.154755 16.68338c10.649689 10.68219 16.63263 25.17035 16.63263 40.277252l0 0c0 31.458488 -25.424591 56.960625 -56.787384 56.960625l0 0c-31.362823 0 -56.787415 -25.502136 -56.787415 -56.960625z" fill-rule="evenodd"/><path fill="#000000" fill-opacity="0.0" d="m236.39633 124.68241l0 0c0 -42.86947 34.65387 -77.62204 77.40158 -77.62204l0 0c20.528168 0 40.215546 8.178013 54.73117 22.734974c14.5155945 14.556953 22.67038 34.300423 22.67038 54.88707l0 0c0 42.869484 -34.65384 77.62205 -77.40155 77.62205l0 0c-42.74771 0 -77.40158 -34.752563 -77.40158 -77.62205z" fill-rule="evenodd"/><path stroke="#ffffff" stroke-width="2.0" stroke-linejoin="round" stroke-linecap="butt" d="m236.39633 124.68241l0 0c0 -42.86947 34.65387 -77.62204 77.40158 -77.62204l0 0c20.528168 0 40.215546 8.178013 54.73117 22.734974c14.5155945 14.556953 22.67038 34.300423 22.67038 54.88707l0 0c0 42.869484 -34.65384 77.62205 -77.40155 77.62205l0 0c-42.74771 0 -77.40158 -34.752563 -77.40158 -77.62205z" fill-rule="evenodd"/><path fill="#ffffff" d="m297.59793 139.08241l0 -29.234375l17.203125 0l0 3.28125l-13.6875 0l0 9.71875l12.640625 0l0 3.28125l-12.546875 0l0 12.953125l-3.609375 0z" fill-rule="nonzero"/><path fill="#ffffff" d="m321.53543 116.34804l0 -2.125l8.53125 0l0 2.125l-8.53125 0z" fill-rule="nonzero"/><path fill="#000000" fill-opacity="0.0" d="m66.301834 124.68767l0 0c0 -31.458488 25.424591 -56.960632 56.787407 -56.960632l0 0c15.060951 0 29.505058 6.00119 40.154747 16.68338c10.649704 10.68219 16.63266 25.17035 16.63266 40.277252l0 0c0 31.45848 -25.424591 56.960632 -56.787407 56.960632l0 0c-31.362816 0 -56.787407 -25.502151 -56.787407 -56.960632z" fill-rule="evenodd"/><path stroke="#ffffff" stroke-width="2.0" stroke-linejoin="round" stroke-linecap="butt" d="m66.301834 124.68767l0 0c0 -31.458488 25.424591 -56.960632 56.787407 -56.960632l0 0c15.060951 0 29.505058 6.00119 40.154747 16.68338c10.649704 10.68219 16.63266 25.17035 16.63266 40.277252l0 0c0 31.45848 -25.424591 56.960632 -56.787407 56.960632l0 0c-31.362816 0 -56.787407 -25.502151 -56.787407 -56.960632z" fill-rule="evenodd"/><path fill="#000000" fill-opacity="0.0" d="m123.08924 181.6483l-0.9133911 84.88188" fill-rule="evenodd"/><path stroke="#ffffff" stroke-width="1.0" stroke-linejoin="round" stroke-linecap="butt" stroke-dasharray="4.0,3.0" d="m123.08924 181.6483l-0.9133911 84.88188" fill-rule="evenodd"/><path fill="#000000" fill-opacity="0.0" d="m314.2546 181.6483l-0.7559204 81.85826" fill-rule="evenodd"/><path stroke="#ffffff" stroke-width="1.0" stroke-linejoin="round" stroke-linecap="butt" stroke-dasharray="4.0,3.0" d="m314.2546 181.6483l-0.7559204 81.85826" fill-rule="evenodd"/><path fill="#000000" fill-opacity="0.0" d="m122.17585 252.42258l25.181084 -6.047241l0 3.0236206l140.97641 0l0 -3.0236206l25.181091 6.047241l-25.181091 6.047241l0 -3.0236206l-140.97641 0l0 3.0236206z" fill-rule="evenodd"/><path stroke="#ffffff" stroke-width="1.0" stroke-linejoin="round" stroke-linecap="butt" d="m122.17585 252.42258l25.181084 -6.047241l0 3.0236206l140.97641 0l0 -3.0236206l25.181091 6.047241l-25.181091 6.047241l0 -3.0236206l-140.97641 0l0 3.0236206z" fill-rule="evenodd"/><path fill="#000000" fill-opacity="0.0" d="m161.50656 223.25722l113.5748 0l0 35.2126l-113.5748 0z" fill-rule="evenodd"/><path fill="#ffffff" d="m187.52534 245.05722l0 -1.21875l2.984375 -3.171875q0.75 -0.8125 1.09375 -1.4375q0.359375 -0.640625 0.359375 -1.21875q0 -0.8125 -0.453125 -1.28125q-0.4375 -0.46875 -1.21875 -0.46875q-0.859375 0 -1.34375 0.484375q-0.484375 0.46875 -0.484375 1.3125l-1.203125 0q0.03125 -0.875 0.40625 -1.515625q0.390625 -0.65625 1.0625 -1.0q0.671875 -0.34375 1.5625 -0.34375q0.875 0 1.515625 0.34375q0.65625 0.328125 1.0 0.953125q0.34375 0.625 0.34375 1.5q0 0.828125 -0.4375 1.640625q-0.4375 0.8125 -1.4375 1.84375l-2.390625 2.484375l4.4375 0l0 1.09375l-5.796875 0zm10.793716 0.140625q-0.9375 0 -1.640625 -0.390625q-0.703125 -0.40625 -1.09375 -1.109375q-0.375 -0.703125 -0.375 -1.640625q0 -0.734375 0.203125 -1.4375q0.203125 -0.703125 0.625 -1.359375l2.4375 -3.9375l1.328125 0l-2.75 4.4375l0.046875 0.03125q0.25 -0.375 0.6875 -0.5625q0.453125 -0.203125 1.0 -0.203125q0.796875 0 1.375 0.375q0.59375 0.359375 0.90625 1.046875q0.328125 0.671875 0.328125 1.609375q0 0.9375 -0.390625 1.640625q-0.390625 0.703125 -1.078125 1.109375q-0.6875 0.390625 -1.609375 0.390625zm-0.015625 -1.078125q0.84375 0 1.359375 -0.5625q0.53125 -0.5625 0.53125 -1.5q0 -0.9375 -0.53125 -1.5q-0.515625 -0.5625 -1.359375 -0.5625q-0.859375 0 -1.375 0.5625q-0.515625 0.5625 -0.515625 1.5q0 0.9375 0.515625 1.5q0.515625 0.5625 1.375 0.5625zm7.9968414 1.078125q-0.890625 0 -1.5625 -0.3125q-0.65625 -0.328125 -1.015625 -0.90625q-0.359375 -0.59375 -0.359375 -1.375q0 -0.859375 0.46875 -1.484375q0.484375 -0.640625 1.5 -1.125l1.296875 -0.625q0.59375 -0.28125 0.90625 -0.734375q0.328125 -0.453125 0.328125 -1.0q0 -0.640625 -0.421875 -1.015625q-0.421875 -0.375 -1.140625 -0.375q-0.71875 0 -1.140625 0.390625q-0.421875 0.375 -0.421875 1.015625q0 0.53125 0.3125 0.984375q0.3125 0.453125 0.859375 0.71875l1.296875 0.609375q1.0625 0.5 1.546875 1.140625q0.484375 0.625 0.484375 1.5q0 1.1875 -0.796875 1.890625q-0.796875 0.703125 -2.140625 0.703125zm0 -1.078125q0.8125 0 1.28125 -0.40625q0.46875 -0.421875 0.46875 -1.140625q0 -0.5625 -0.3125 -1.03125q-0.296875 -0.46875 -0.859375 -0.75l-1.28125 -0.625q-1.078125 -0.515625 -1.5625 -1.109375q-0.46875 -0.609375 -0.46875 -1.453125q0 -0.75 0.328125 -1.296875q0.34375 -0.546875 0.953125 -0.828125q0.609375 -0.296875 1.453125 -0.296875q0.84375 0 1.453125 0.296875q0.609375 0.28125 0.9375 0.828125q0.34375 0.546875 0.34375 1.296875q0 0.84375 -0.484375 1.4375q-0.484375 0.59375 -1.578125 1.140625l-1.28125 0.625q-0.546875 0.265625 -0.859375 0.734375q-0.296875 0.453125 -0.296875 1.015625q0 0.71875 0.46875 1.140625q0.484375 0.421875 1.296875 0.421875zm7.9968414 1.078125q-0.515625 0 -0.8125 -0.296875q-0.296875 -0.296875 -0.296875 -0.796875q0 -0.515625 0.296875 -0.8125q0.296875 -0.3125 0.8125 -0.3125q0.5 0 0.796875 0.3125q0.3125 0.296875 0.3125 0.8125q0 0.5 -0.3125 0.796875q-0.296875 0.296875 -0.796875 0.296875zm7.9968414 0q-0.890625 0 -1.5625 -0.3125q-0.65625 -0.328125 -1.015625 -0.90625q-0.359375 -0.59375 -0.359375 -1.375q0 -0.859375 0.46875 -1.484375q0.484375 -0.640625 1.5 -1.125l1.296875 -0.625q0.59375 -0.28125 0.90625 -0.734375q0.328125 -0.453125 0.328125 -1.0q0 -0.640625 -0.421875 -1.015625q-0.421875 -0.375 -1.140625 -0.375q-0.71875 0 -1.140625 0.390625q-0.421875 0.375 -0.421875 1.015625q0 0.53125 0.3125 0.984375q0.3125 0.453125 0.859375 0.71875l1.296875 0.609375q1.0625 0.5 1.546875 1.140625q0.484375 0.625 0.484375 1.5q0 1.1875 -0.796875 1.890625q-0.796875 0.703125 -2.140625 0.703125zm0 -1.078125q0.8125 0 1.28125 -0.40625q0.46875 -0.421875 0.46875 -1.140625q0 -0.5625 -0.3125 -1.03125q-0.296875 -0.46875 -0.859375 -0.75l-1.28125 -0.625q-1.078125 -0.515625 -1.5625 -1.109375q-0.46875 -0.609375 -0.46875 -1.453125q0 -0.75 0.328125 -1.296875q0.34375 -0.546875 0.953125 -0.828125q0.609375 -0.296875 1.453125 -0.296875q0.84375 0 1.453125 0.296875q0.609375 0.28125 0.9375 0.828125q0.34375 0.546875 0.34375 1.296875q0 0.84375 -0.484375 1.4375q-0.484375 0.59375 -1.578125 1.140625l-1.28125 0.625q-0.546875 0.265625 -0.859375 0.734375q-0.296875 0.453125 -0.296875 1.015625q0 0.71875 0.46875 1.140625q0.484375 0.421875 1.296875 0.421875zm13.212433 3.34375l0 -9.734375l1.203125 0l0 1.390625l0.25 0l-0.25 0.28125q0 -0.828125 0.546875 -1.3125q0.5625 -0.5 1.46875 -0.5q1.109375 0 1.765625 0.734375q0.65625 0.71875 0.65625 1.984375l0 2.15625q0 0.828125 -0.296875 1.453125q-0.296875 0.609375 -0.84375 0.953125q-0.53125 0.328125 -1.28125 0.328125q-0.890625 0 -1.453125 -0.5q-0.5625 -0.5 -0.5625 -1.3125l0.25 0.265625l-0.265625 0l0.015625 1.671875l0 2.140625l-1.203125 0zm2.8125 -3.3125q0.765625 0 1.203125 -0.453125q0.4375 -0.453125 0.4375 -1.3125l0 -2.0q0 -0.84375 -0.4375 -1.296875q-0.4375 -0.453125 -1.203125 -0.453125q-0.71875 0 -1.171875 0.46875q-0.4375 0.46875 -0.4375 1.28125l0 2.0q0 0.828125 0.4375 1.296875q0.453125 0.46875 1.171875 0.46875zm4.8405914 0.90625l0 -7.328125l1.0625 0l0 0.875l0.234375 0l-0.1875 0.328125q0 -0.625 0.328125 -0.984375q0.328125 -0.359375 0.890625 -0.359375q0.609375 0 0.9375 0.453125q0.34375 0.453125 0.34375 1.28125l-0.359375 -0.71875l0.546875 0l-0.25 0.328125q0 -0.625 0.34375 -0.984375q0.34375 -0.359375 0.90625 -0.359375q0.6875 0 1.0625 0.53125q0.390625 0.515625 0.390625 1.359375l0 5.578125l-1.109375 0l0 -5.578125q0 -0.453125 -0.203125 -0.703125q-0.1875 -0.265625 -0.5625 -0.265625q-0.359375 0 -0.5625 0.25q-0.203125 0.25 -0.203125 0.703125l0 5.59375l-0.96875 0l0 -5.578125q0 -0.46875 -0.203125 -0.71875q-0.203125 -0.25 -0.578125 -0.25q-0.375 0 -0.5625 0.25q-0.1875 0.25 -0.1875 0.703125l0 5.59375l-1.109375 0z" fill-rule="nonzero"/><path fill="#000000" fill-opacity="0.0" d="m215.3729 359.0198l0 0c0 -31.458496 25.424576 -56.960632 56.787384 -56.960632l0 0c15.060974 0 29.505066 6.00119 40.154755 16.68338c10.649719 10.68219 16.63266 25.17035 16.63266 40.277252l0 0c0 31.458496 -25.424591 56.960632 -56.787415 56.960632l0 0c-31.362808 0 -56.787384 -25.502136 -56.787384 -56.960632z" fill-rule="evenodd"/><path stroke="#ffffff" stroke-width="2.0" stroke-linejoin="round" stroke-linecap="butt" d="m215.3729 359.0198l0 0c0 -31.458496 25.424576 -56.960632 56.787384 -56.960632l0 0c15.060974 0 29.505066 6.00119 40.154755 16.68338c10.649719 10.68219 16.63266 25.17035 16.63266 40.277252l0 0c0 31.458496 -25.424591 56.960632 -56.787415 56.960632l0 0c-31.362808 0 -56.787384 -25.502136 -56.787384 -56.960632z" fill-rule="evenodd"/><path fill="#000000" fill-opacity="0.0" d="m194.75853 359.01575l0 0c0 -42.869476 34.65387 -77.62204 77.401566 -77.62204l0 0c20.528198 0 40.215576 8.178009 54.7312 22.734955c14.5155945 14.556976 22.67038 34.300446 22.67038 54.887085l0 0c0 42.869476 -34.65387 77.62204 -77.40158 77.62204l0 0c-42.747696 0 -77.401566 -34.752563 -77.401566 -77.62204z" fill-rule="evenodd"/><path stroke="#ffffff" stroke-width="2.0" stroke-linejoin="round" stroke-linecap="butt" d="m194.75853 359.01575l0 0c0 -42.869476 34.65387 -77.62204 77.401566 -77.62204l0 0c20.528198 0 40.215576 8.178009 54.7312 22.734955c14.5155945 14.556976 22.67038 34.300446 22.67038 54.887085l0 0c0 42.869476 -34.65387 77.62204 -77.40158 77.62204l0 0c-42.747696 0 -77.401566 -34.752563 -77.401566 -77.62204z" fill-rule="evenodd"/><path fill="#ffffff" d="m255.96014 373.41574l0 -29.234375l17.203125 0l0 3.28125l-13.6875 0l0 9.71875l12.640625 0l0 3.28125l-12.546875 0l0 12.953125l-3.609375 0z" fill-rule="nonzero"/><path fill="#ffffff" d="m279.8976 350.68137l0 -2.125l8.53125 0l0 2.125l-8.53125 0z" fill-rule="nonzero"/><path fill="#000000" fill-opacity="0.0" d="m117.81365 415.98163l-0.9133911 84.8819" fill-rule="evenodd"/><path stroke="#ffffff" stroke-width="1.0" stroke-linejoin="round" stroke-linecap="butt" stroke-dasharray="4.0,3.0" d="m117.81365 415.98163l-0.9133911 84.8819" fill-rule="evenodd"/><path fill="#000000" fill-opacity="0.0" d="m272.6168 415.98163l-0.7558899 81.85828" fill-rule="evenodd"/><path stroke="#ffffff" stroke-width="1.0" stroke-linejoin="round" stroke-linecap="butt" stroke-dasharray="4.0,3.0" d="m272.6168 415.98163l-0.7558899 81.85828" fill-rule="evenodd"/><path fill="#000000" fill-opacity="0.0" d="m116.90026 485.75854l25.181084 -6.0472717l0 3.0236206l104.44098 0l0 -3.0236206l25.181076 6.0472717l-25.181076 6.047241l0 -3.0236206l-104.44098 0l0 3.0236206z" fill-rule="evenodd"/><path stroke="#ffffff" stroke-width="1.0" stroke-linejoin="round" stroke-linecap="butt" d="m116.90026 485.75854l25.181084 -6.0472717l0 3.0236206l104.44098 0l0 -3.0236206l25.181076 6.0472717l-25.181076 6.047241l0 -3.0236206l-104.44098 0l0 3.0236206z" fill-rule="evenodd"/><path fill="#000000" fill-opacity="0.0" d="m138.04987 454.54855l113.5748 0l0 35.212616l-113.5748 0z" fill-rule="evenodd"/><path fill="#ffffff" d="m172.06549 476.34854l0 -1.21875l2.984375 -3.171875q0.75 -0.8125 1.09375 -1.4375q0.359375 -0.640625 0.359375 -1.21875q0 -0.8125 -0.453125 -1.28125q-0.4375 -0.46875 -1.21875 -0.46875q-0.859375 0 -1.34375 0.484375q-0.484375 0.46875 -0.484375 1.3125l-1.203125 0q0.03125 -0.875 0.40625 -1.515625q0.390625 -0.65625 1.0625 -1.0q0.671875 -0.34375 1.5625 -0.34375q0.875 0 1.515625 0.34375q0.65625 0.328125 1.0 0.953125q0.34375 0.625 0.34375 1.5q0 0.828125 -0.4375 1.640625q-0.4375 0.8125 -1.4375 1.84375l-2.390625 2.484375l4.4375 0l0 1.09375l-5.796875 0zm10.637466 0.140625q-0.890625 0 -1.546875 -0.359375q-0.65625 -0.359375 -1.015625 -0.984375q-0.359375 -0.625 -0.359375 -1.46875l1.1875 0q0 0.8125 0.453125 1.28125q0.46875 0.453125 1.28125 0.453125q0.828125 0 1.28125 -0.46875q0.453125 -0.484375 0.453125 -1.265625l0 -0.6875q0 -0.828125 -0.453125 -1.28125q-0.453125 -0.453125 -1.28125 -0.453125l-1.0 0l0 -1.203125l2.421875 -2.34375l-3.953125 0l0 -1.09375l5.15625 0l0 1.203125l-2.59375 2.515625l0 -0.140625q1.328125 0 2.109375 0.765625q0.796875 0.75 0.796875 2.03125l0 0.6875q0 0.84375 -0.375 1.46875q-0.359375 0.625 -1.03125 0.984375q-0.65625 0.359375 -1.53125 0.359375zm5.3405914 -0.140625l0 -1.09375l2.640625 0l0 -7.640625l-2.640625 1.984375l0 -1.34375l2.203125 -1.640625l1.625 0l0 8.640625l2.171875 0l0 1.09375l-6.0 0zm16.009308 2.40625l0 -9.734375l1.203125 0l0 1.390625l0.25 0l-0.25 0.28125q0 -0.828125 0.546875 -1.3125q0.5625 -0.5 1.46875 -0.5q1.109375 0 1.765625 0.734375q0.65625 0.71875 0.65625 1.984375l0 2.15625q0 0.828125 -0.296875 1.453125q-0.296875 0.609375 -0.84375 0.953125q-0.53125 0.328125 -1.28125 0.328125q-0.890625 0 -1.453125 -0.5q-0.5625 -0.5 -0.5625 -1.3125l0.25 0.265625l-0.265625 0l0.015625 1.671875l0 2.140625l-1.203125 0zm2.8125 -3.3125q0.765625 0 1.203125 -0.453125q0.4375 -0.453125 0.4375 -1.3125l0 -2.0q0 -0.84375 -0.4375 -1.296875q-0.4375 -0.453125 -1.203125 -0.453125q-0.71875 0 -1.171875 0.46875q-0.4375 0.46875 -0.4375 1.28125l0 2.0q0 0.828125 0.4375 1.296875q0.453125 0.46875 1.171875 0.46875zm4.8405914 0.90625l0 -7.328125l1.0625 0l0 0.875l0.234375 0l-0.1875 0.328125q0 -0.625 0.328125 -0.984375q0.328125 -0.359375 0.890625 -0.359375q0.609375 0 0.9375 0.453125q0.34375 0.453125 0.34375 1.28125l-0.359375 -0.71875l0.546875 0l-0.25 0.328125q0 -0.625 0.34375 -0.984375q0.34375 -0.359375 0.90625 -0.359375q0.6875 0 1.0625 0.53125q0.390625 0.515625 0.390625 1.359375l0 5.578125l-1.109375 0l0 -5.578125q0 -0.453125 -0.203125 -0.703125q-0.1875 -0.265625 -0.5625 -0.265625q-0.359375 0 -0.5625 0.25q-0.203125 0.25 -0.203125 0.703125l0 5.59375l-0.96875 0l0 -5.578125q0 -0.46875 -0.203125 -0.71875q-0.203125 -0.25 -0.578125 -0.25q-0.375 0 -0.5625 0.25q-0.1875 0.25 -0.1875 0.703125l0 5.59375l-1.109375 0z" fill-rule="nonzero"/><path fill="#000000" fill-opacity="0.0" d="m60.569736 356.51324l0 0c0 -31.458496 25.424587 -56.960632 56.787403 -56.960632l0 0c15.060951 0 29.505058 6.00119 40.154762 16.68338c10.649704 10.68219 16.632645 25.17035 16.632645 40.277252l0 0c0 31.458496 -25.424591 56.960632 -56.787407 56.960632l0 0c-31.362816 0 -56.787403 -25.502136 -56.787403 -56.960632z" fill-rule="evenodd"/><path stroke="#ffffff" stroke-width="2.0" stroke-linejoin="round" stroke-linecap="butt" d="m60.569736 356.51324l0 0c0 -31.458496 25.424587 -56.960632 56.787403 -56.960632l0 0c15.060951 0 29.505058 6.00119 40.154762 16.68338c10.649704 10.68219 16.632645 25.17035 16.632645 40.277252l0 0c0 31.458496 -25.424591 56.960632 -56.787407 56.960632l0 0c-31.362816 0 -56.787403 -25.502136 -56.787403 -56.960632z" fill-rule="evenodd"/><path fill="#000000" fill-opacity="0.0" d="m39.95538 356.5092l0 0c0 -42.869476 34.653866 -77.62204 77.40158 -77.62204l0 0c20.528175 0 40.21557 8.178009 54.73118 22.734955c14.51561 14.556976 22.670395 34.300446 22.670395 54.887085l0 0c0 42.869476 -34.65387 77.62204 -77.40157 77.62204l0 0c-42.74771 0 -77.40158 -34.752563 -77.40158 -77.62204z" fill-rule="evenodd"/><path stroke="#ffffff" stroke-width="2.0" stroke-linejoin="round" stroke-linecap="butt" d="m39.95538 356.5092l0 0c0 -42.869476 34.653866 -77.62204 77.40158 -77.62204l0 0c20.528175 0 40.21557 8.178009 54.73118 22.734955c14.51561 14.556976 22.670395 34.300446 22.670395 54.887085l0 0c0 42.869476 -34.65387 77.62204 -77.40157 77.62204l0 0c-42.74771 0 -77.40158 -34.752563 -77.40158 -77.62204z" fill-rule="evenodd"/><path fill="#ffffff" d="m88.95387 370.90918l0 -29.203125l4.8125 0l8.90625 25.0q-0.078125 -1.0 -0.171875 -2.453125q-0.09375 -1.46875 -0.15625 -3.078125q-0.0625 -1.625 -0.0625 -3.0625l0 -16.40625l3.484375 0l0 29.203125l-4.8125 0l-8.875 -25.0q0.078125 0.953125 0.15625 2.421875q0.078125 1.453125 0.140625 3.078125q0.0625 1.625 0.0625 3.09375l0 16.40625l-3.484375 0zm30.48436 0.40625q-3.484375 0 -5.484375 -1.78125q-2.0 -1.78125 -2.0 -4.828125q0 -3.078125 2.0 -4.828125q2.0 -1.765625 5.40625 -1.765625l6.796875 0l0 -2.203125q0 -2.046875 -1.21875 -3.140625q-1.21875 -1.09375 -3.453125 -1.09375q-1.96875 0 -3.296875 0.828125q-1.3125 0.8125 -1.515625 2.203125l-3.59375 0q0.359375 -2.84375 2.671875 -4.515625q2.328125 -1.6875 5.8125 -1.6875q3.796875 0 6.0 1.96875q2.203125 1.953125 2.203125 5.3125l0 15.125l-3.53125 0l0 -4.203125l-0.59375 0l0.59375 -0.59375q0 2.390625 -1.859375 3.796875q-1.859375 1.40625 -4.9375 1.40625zm0.875 -2.84375q2.5625 0 4.203125 -1.28125q1.640625 -1.28125 1.640625 -3.28125l0 -3.125l-6.71875 0q-1.796875 0 -2.84375 1.0q-1.03125 1.0 -1.03125 2.71875q0 1.84375 1.25 2.90625q1.265625 1.0625 3.5 1.0625z" fill-rule="nonzero"/><path fill="#ffffff" d="m140.18822 353.37793l0 -5.203125l-5.09375 0l0 -2.125l5.09375 0l0 -5.203125l2.34375 0l0 5.203125l5.09375 0l0 2.125l-5.09375 0l0 5.203125l-2.34375 0z" fill-rule="nonzero"/></g></svg>