<svg version="1.1" viewBox="0.0 0.0 391.9737532808399 500.005249343832" fill="none" stroke="none" stroke-linecap="square" stroke-miterlimit="10" xmlns:xlink="http://www.w3.org/1999/xlink" xmlns="http://www.w3.org/2000/svg"><clipPath id="p.0"><path d="m0 0l391.97375 0l0 500.00525l-391.97375 0l0 -500.00525z" clip-rule="nonzero"/></clipPath><g clip-path="url(#p.0)"><path fill="#000000" fill-opacity="0.0" d="m0 0l391.97375 0l0 500.00525l-391.97375 0z" fill-rule="evenodd"/><path fill="#000000" fill-opacity="0.0" d="m5.2782154 118.72966l0 0c0 -62.76042 50.72931 -113.637794 113.30709 -113.637794l0 0c30.05091 0 58.87101 11.972519 80.1202 33.283737c21.249207 21.311222 33.18689 50.21544 33.18689 80.35406l0 0c0 62.76042 -50.729324 113.63779 -113.30709 113.63779l0 0c-62.577778 0 -113.30709 -50.877365 -113.30709 -113.63779z" fill-rule="evenodd"/><path stroke="#ffffff" stroke-width="2.0" stroke-linejoin="round" stroke-linecap="butt" d="m5.2782154 118.72966l0 0c0 -62.76042 50.72931 -113.637794 113.30709 -113.637794l0 0c30.05091 0 58.87101 11.972519 80.1202 33.283737c21.249207 21.311222 33.18689 50.21544 33.18689 80.35406l0 0c0 62.76042 -50.729324 113.63779 -113.30709 113.63779l0 0c-62.577778 0 -113.30709 -50.877365 -113.30709 -113.63779z" fill-rule="evenodd"/><path fill="#000000" fill-opacity="0.0" d="m35.451443 118.72966l0 0c0 -46.05272 37.220295 -83.385826 83.133865 -83.385826l0 0c22.04847 0 43.193886 8.785267 58.784508 24.423141c15.590622 15.637878 24.34935 36.84739 24.34935 58.962685l0 0c0 46.05272 -37.22029 83.38582 -83.13386 83.38582l0 0c-45.913567 0 -83.133865 -37.3331 -83.133865 -83.38582z" fill-rule="evenodd"/><path stroke="#ffffff" stroke-width="2.0" stroke-linejoin="round" stroke-linecap="butt" d="m35.451443 118.72966l0 0c0 -46.05272 37.220295 -83.385826 83.133865 -83.385826l0 0c22.04847 0 43.193886 8.785267 58.784508 24.423141c15.590622 15.637878 24.34935 36.84739 24.34935 58.962685l0 0c0 46.05272 -37.22029 83.38582 -83.13386 83.38582l0 0c-45.913567 0 -83.133865 -37.3331 -83.133865 -83.38582z" fill-rule="evenodd"/><path fill="#ffffff" d="m102.27596 133.12965l0 -29.203117l3.59375 0l0 12.515625l4.3125 0l6.484375 -12.515625l3.921875 0l-7.234375 14.046875l7.640625 15.156242l-4.125 0l-6.796875 -13.515617l-4.203125 0l0 13.515617l-3.59375 0z" fill-rule="nonzero"/><path fill="#ffffff" d="m129.41656 115.59841l0 -5.203125l-5.0937424 0l0 -2.125l5.0937424 0l0 -5.203125l2.34375 0l0 5.203125l5.09375 0l0 2.125l-5.09375 0l0 5.203125l-2.34375 0z" fill-rule="nonzero"/><path fill="#000000" fill-opacity="0.0" d="m252.50674 118.73371l0 0c0 -31.458488 25.424591 -56.96063 56.787415 -56.96063l0 0c15.060944 0 29.505035 6.001194 40.154755 16.683384c10.649689 10.68219 16.63263 25.17035 16.63263 40.277245l0 0c0 31.458488 -25.424591 56.960625 -56.787384 56.960625l0 0c-31.362823 0 -56.787415 -25.502136 -56.787415 -56.960625z" fill-rule="evenodd"/><path stroke="#ffffff" stroke-width="2.0" stroke-linejoin="round" stroke-linecap="butt" d="m252.50674 118.73371l0 0c0 -31.458488 25.424591 -56.96063 56.787415 -56.96063l0 0c15.060944 0 29.505035 6.001194 40.154755 16.683384c10.649689 10.68219 16.63263 25.17035 16.63263 40.277245l0 0c0 31.458488 -25.424591 56.960625 -56.787384 56.960625l0 0c-31.362823 0 -56.787415 -25.502136 -56.787415 -56.960625z" fill-rule="evenodd"/><path fill="#000000" fill-opacity="0.0" d="m231.8924 118.72966l0 0c0 -42.869476 34.65387 -77.62205 77.40158 -77.62205l0 0c20.528168 0 40.215546 8.178013 54.73117 22.73497c14.5155945 14.556961 22.67038 34.30043 22.67038 54.887077l0 0c0 42.869476 -34.65384 77.62204 -77.40155 77.62204l0 0c-42.74771 0 -77.40158 -34.752563 -77.40158 -77.62204z" fill-rule="evenodd"/><path stroke="#ffffff" stroke-width="2.0" stroke-linejoin="round" stroke-linecap="butt" d="m231.8924 118.72966l0 0c0 -42.869476 34.65387 -77.62205 77.40158 -77.62205l0 0c20.528168 0 40.215546 8.178013 54.73117 22.73497c14.5155945 14.556961 22.67038 34.30043 22.67038 54.887077l0 0c0 42.869476 -34.65384 77.62204 -77.40155 77.62204l0 0c-42.74771 0 -77.40158 -34.752563 -77.40158 -77.62204z" fill-rule="evenodd"/><path fill="#ffffff" d="m293.094 133.12965l0 -29.234375l17.203125 0l0 3.28125l-13.6875 0l0 9.71875l12.640625 0l0 3.28125l-12.546875 0l0 12.953125l-3.609375 0z" fill-rule="nonzero"/><path fill="#ffffff" d="m317.0315 110.39528l0 -2.125l8.53125 0l0 2.125l-8.53125 0z" fill-rule="nonzero"/><path fill="#000000" fill-opacity="0.0" d="m61.7979 118.73491l0 0c0 -31.458488 25.424587 -56.960632 56.787403 -56.960632l0 0c15.060951 0 29.505058 6.00119 40.154747 16.68338c10.649704 10.682198 16.632645 25.170357 16.632645 40.277252l0 0c0 31.45848 -25.424576 56.960632 -56.78739 56.960632l0 0c-31.362816 0 -56.787403 -25.502151 -56.787403 -56.960632z" fill-rule="evenodd"/><path stroke="#ffffff" stroke-width="2.0" stroke-linejoin="round" stroke-linecap="butt" d="m61.7979 118.73491l0 0c0 -31.458488 25.424587 -56.960632 56.787403 -56.960632l0 0c15.060951 0 29.505058 6.00119 40.154747 16.68338c10.649704 10.682198 16.632645 25.170357 16.632645 40.277252l0 0c0 31.45848 -25.424576 56.960632 -56.78739 56.960632l0 0c-31.362816 0 -56.787403 -25.502151 -56.787403 -56.960632z" fill-rule="evenodd"/><path fill="#000000" fill-opacity="0.0" d="m118.585304 175.69554l-0.9133911 81.60631" fill-rule="evenodd"/><path stroke="#ffffff" stroke-width="1.0" stroke-linejoin="round" stroke-linecap="butt" stroke-dasharray="4.0,3.0" d="m118.585304 175.69554l-0.9133911 81.60631" fill-rule="evenodd"/><path fill="#000000" fill-opacity="0.0" d="m309.75067 175.69554l-0.7559204 81.85826" fill-rule="evenodd"/><path stroke="#ffffff" stroke-width="1.0" stroke-linejoin="round" stroke-linecap="butt" stroke-dasharray="4.0,3.0" d="m309.75067 175.69554l-0.7559204 81.85826" fill-rule="evenodd"/><path fill="#000000" fill-opacity="0.0" d="m117.67191 246.46982l25.181084 -6.047241l0 3.0236206l140.97641 0l0 -3.0236206l25.181091 6.047241l-25.181091 6.047241l0 -3.0236206l-140.97641 0l0 3.0236206z" fill-rule="evenodd"/><path stroke="#ffffff" stroke-width="1.0" stroke-linejoin="round" stroke-linecap="butt" d="m117.67191 246.46982l25.181084 -6.047241l0 3.0236206l140.97641 0l0 -3.0236206l25.181091 6.047241l-25.181091 6.047241l0 -3.0236206l-140.97641 0l0 3.0236206z" fill-rule="evenodd"/><path fill="#000000" fill-opacity="0.0" d="m157.00262 215.80725l113.5748 0l0 35.212585l-113.5748 0z" fill-rule="evenodd"/><path fill="#ffffff" d="m188.75244 238.88724l0 -1.34375l3.265625 -3.484375q0.84375 -0.890625 1.21875 -1.578125q0.390625 -0.703125 0.390625 -1.34375q0 -0.890625 -0.5 -1.40625q-0.484375 -0.515625 -1.34375 -0.515625q-0.9375 0 -1.46875 0.53125q-0.53125 0.515625 -0.53125 1.453125l-1.3125 0q0.015625 -0.96875 0.4375 -1.671875q0.421875 -0.71875 1.15625 -1.09375q0.75 -0.390625 1.71875 -0.390625q0.96875 0 1.671875 0.375q0.71875 0.375 1.09375 1.0625q0.390625 0.6875 0.390625 1.640625q0 0.90625 -0.484375 1.796875q-0.484375 0.890625 -1.578125 2.046875l-2.640625 2.71875l4.875 0l0 1.203125l-6.359375 0zm11.856277 0.140625q-1.015625 0 -1.796875 -0.421875q-0.765625 -0.4375 -1.1875 -1.203125q-0.421875 -0.78125 -0.421875 -1.8125q0 -0.8125 0.21875 -1.578125q0.234375 -0.78125 0.6875 -1.5l2.6875 -4.328125l1.453125 0l-3.03125 4.875l0.0625 0.03125q0.28125 -0.40625 0.765625 -0.625q0.484375 -0.21875 1.078125 -0.21875q0.875 0 1.515625 0.421875q0.65625 0.40625 1.0 1.15625q0.359375 0.734375 0.359375 1.765625q0 1.03125 -0.421875 1.8125q-0.421875 0.765625 -1.1875 1.203125q-0.75 0.421875 -1.78125 0.421875zm-0.015625 -1.171875q0.9375 0 1.515625 -0.609375q0.578125 -0.625 0.578125 -1.65625q0 -1.03125 -0.578125 -1.640625q-0.578125 -0.625 -1.515625 -0.625q-0.9375 0 -1.515625 0.625q-0.5625 0.609375 -0.5625 1.640625q0 1.03125 0.5625 1.65625q0.578125 0.609375 1.515625 0.609375zm8.809402 1.171875q-1.015625 0 -1.796875 -0.421875q-0.765625 -0.4375 -1.1875 -1.203125q-0.421875 -0.78125 -0.421875 -1.8125q0 -0.8125 0.21875 -1.578125q0.234375 -0.78125 0.6875 -1.5l2.6875 -4.328125l1.453125 0l-3.03125 4.875l0.0625 0.03125q0.28125 -0.40625 0.765625 -0.625q0.484375 -0.21875 1.078125 -0.21875q0.875 0 1.515625 0.421875q0.65625 0.40625 1.0 1.15625q0.359375 0.734375 0.359375 1.765625q0 1.03125 -0.421875 1.8125q-0.421875 0.765625 -1.1875 1.203125q-0.75 0.421875 -1.78125 0.421875zm-0.015625 -1.171875q0.9375 0 1.515625 -0.609375q0.578125 -0.625 0.578125 -1.65625q0 -1.03125 -0.578125 -1.640625q-0.578125 -0.625 -1.515625 -0.625q-0.9375 0 -1.515625 0.625q-0.5625 0.609375 -0.5625 1.640625q0 1.03125 0.5625 1.65625q0.578125 0.609375 1.515625 0.609375zm14.54068 3.671875l0 -10.703125l1.328125 0l0 1.546875l0.265625 0l-0.265625 0.296875q0 -0.921875 0.609375 -1.453125q0.609375 -0.53125 1.59375 -0.53125q1.21875 0 1.9375 0.796875q0.734375 0.796875 0.734375 2.1875l0 2.359375q0 0.921875 -0.328125 1.59375q-0.328125 0.671875 -0.921875 1.046875q-0.59375 0.359375 -1.421875 0.359375q-0.96875 0 -1.59375 -0.53125q-0.609375 -0.546875 -0.609375 -1.453125l0.265625 0.3125l-0.296875 0l0.03125 1.828125l0 2.34375l-1.328125 0zm3.09375 -3.640625q0.84375 0 1.3125 -0.5q0.484375 -0.5 0.484375 -1.4375l0 -2.1875q0 -0.9375 -0.484375 -1.4375q-0.46875 -0.5 -1.3125 -0.5q-0.796875 0 -1.28125 0.515625q-0.484375 0.515625 -0.484375 1.421875l0 2.1875q0 0.921875 0.484375 1.4375q0.484375 0.5 1.28125 0.5zm5.3250275 1.0l0 -8.0625l1.15625 0l0 0.96875l0.265625 0l-0.203125 0.359375q0 -0.6875 0.359375 -1.078125q0.359375 -0.390625 0.96875 -0.390625q0.671875 0 1.03125 0.5q0.375 0.5 0.375 1.40625l-0.390625 -0.796875l0.609375 0l-0.28125 0.359375q0 -0.6875 0.375 -1.078125q0.375 -0.390625 1.0 -0.390625q0.75 0 1.171875 0.578125q0.421875 0.5625 0.421875 1.5l0 6.125l-1.21875 0l0 -6.140625q0 -0.5 -0.21875 -0.78125q-0.203125 -0.28125 -0.609375 -0.28125q-0.40625 0 -0.640625 0.28125q-0.21875 0.265625 -0.21875 0.765625l0 6.15625l-1.046875 0l0 -6.140625q0 -0.515625 -0.234375 -0.78125q-0.21875 -0.28125 -0.640625 -0.28125q-0.40625 0 -0.609375 0.28125q-0.203125 0.265625 -0.203125 0.765625l0 6.15625l-1.21875 0z" fill-rule="nonzero"/><path fill="#000000" fill-opacity="0.0" d="m210.86896 353.06705l0 0c0 -31.458496 25.424576 -56.960632 56.787384 -56.960632l0 0c15.060974 0 29.505066 6.00119 40.154755 16.68338c10.649719 10.68219 16.63266 25.17035 16.63266 40.277252l0 0c0 31.458496 -25.424591 56.960632 -56.787415 56.960632l0 0c-31.362808 0 -56.787384 -25.502136 -56.787384 -56.960632z" fill-rule="evenodd"/><path stroke="#ffffff" stroke-width="2.0" stroke-linejoin="round" stroke-linecap="butt" d="m210.86896 353.06705l0 0c0 -31.458496 25.424576 -56.960632 56.787384 -56.960632l0 0c15.060974 0 29.505066 6.00119 40.154755 16.68338c10.649719 10.68219 16.63266 25.17035 16.63266 40.277252l0 0c0 31.458496 -25.424591 56.960632 -56.787415 56.960632l0 0c-31.362808 0 -56.787384 -25.502136 -56.787384 -56.960632z" fill-rule="evenodd"/><path fill="#000000" fill-opacity="0.0" d="m190.2546 353.063l0 0c0 -42.869476 34.65387 -77.62204 77.401566 -77.62204l0 0c20.528198 0 40.215576 8.178009 54.7312 22.734955c14.5155945 14.556976 22.67038 34.300446 22.67038 54.887085l0 0c0 42.869476 -34.65387 77.62204 -77.40158 77.62204l0 0c-42.747696 0 -77.401566 -34.752563 -77.401566 -77.62204z" fill-rule="evenodd"/><path stroke="#ffffff" stroke-width="2.0" stroke-linejoin="round" stroke-linecap="butt" d="m190.2546 353.063l0 0c0 -42.869476 34.65387 -77.62204 77.401566 -77.62204l0 0c20.528198 0 40.215576 8.178009 54.7312 22.734955c14.5155945 14.556976 22.67038 34.300446 22.67038 54.887085l0 0c0 42.869476 -34.65387 77.62204 -77.40158 77.62204l0 0c-42.747696 0 -77.401566 -34.752563 -77.401566 -77.62204z" fill-rule="evenodd"/><path fill="#ffffff" d="m251.4562 367.46298l0 -29.234375l17.203125 0l0 3.28125l-13.6875 0l0 9.71875l12.640625 0l0 3.28125l-12.546875 0l0 12.953125l-3.609375 0z" fill-rule="nonzero"/><path fill="#ffffff" d="m275.39368 344.7286l0 -2.125l8.53125 0l0 2.125l-8.53125 0z" fill-rule="nonzero"/><path fill="#000000" fill-opacity="0.0" d="m113.30971 408.51706l-0.9133835 81.60629" fill-rule="evenodd"/><path stroke="#ffffff" stroke-width="1.0" stroke-linejoin="round" stroke-linecap="butt" stroke-dasharray="4.0,3.0" d="m113.30971 408.51706l-0.9133835 81.60629" fill-rule="evenodd"/><path fill="#000000" fill-opacity="0.0" d="m268.11285 410.02887l-0.7558899 81.85828" fill-rule="evenodd"/><path stroke="#ffffff" stroke-width="1.0" stroke-linejoin="round" stroke-linecap="butt" stroke-dasharray="4.0,3.0" d="m268.11285 410.02887l-0.7558899 81.85828" fill-rule="evenodd"/><path fill="#000000" fill-opacity="0.0" d="m112.396324 479.8058l25.181084 -6.047241l0 3.0236206l104.44098 0l0 -3.0236206l25.181076 6.047241l-25.181076 6.047241l0 -3.0236206l-104.44098 0l0 3.0236206z" fill-rule="evenodd"/><path stroke="#ffffff" stroke-width="1.0" stroke-linejoin="round" stroke-linecap="butt" d="m112.396324 479.8058l25.181084 -6.047241l0 3.0236206l104.44098 0l0 -3.0236206l25.181076 6.047241l-25.181076 6.047241l0 -3.0236206l-104.44098 0l0 3.0236206z" fill-rule="evenodd"/><path fill="#000000" fill-opacity="0.0" d="m133.54593 448.5958l113.5748 0l0 35.212616l-113.5748 0z" fill-rule="evenodd"/><path fill="#ffffff" d="m165.29575 471.6758l0 -1.34375l3.265625 -3.484375q0.84375 -0.890625 1.21875 -1.578125q0.390625 -0.703125 0.390625 -1.34375q0 -0.890625 -0.5 -1.40625q-0.484375 -0.515625 -1.34375 -0.515625q-0.9375 0 -1.46875 0.53125q-0.53125 0.515625 -0.53125 1.453125l-1.3125 0q0.015625 -0.96875 0.4375 -1.671875q0.421875 -0.71875 1.15625 -1.09375q0.75 -0.390625 1.71875 -0.390625q0.96875 0 1.671875 0.375q0.71875 0.375 1.09375 1.0625q0.390625 0.6875 0.390625 1.640625q0 0.90625 -0.484375 1.796875q-0.484375 0.890625 -1.578125 2.046875l-2.640625 2.71875l4.875 0l0 1.203125l-6.359375 0zm11.684402 0.140625q-0.96875 0 -1.703125 -0.375q-0.71875 -0.390625 -1.109375 -1.078125q-0.390625 -0.703125 -0.390625 -1.625l1.3125 0q0 0.90625 0.5 1.40625q0.515625 0.5 1.40625 0.5q0.90625 0 1.40625 -0.515625q0.5 -0.53125 0.5 -1.390625l0 -0.75q0 -0.921875 -0.5 -1.40625q-0.5 -0.5 -1.40625 -0.5l-1.09375 0l0 -1.328125l2.640625 -2.578125l-4.328125 0l0 -1.203125l5.671875 0l0 1.328125l-2.859375 2.765625l0 -0.15625q1.46875 0 2.328125 0.84375q0.859375 0.828125 0.859375 2.234375l0 0.75q0 0.921875 -0.40625 1.625q-0.390625 0.6875 -1.125 1.078125q-0.734375 0.375 -1.703125 0.375zm5.8719025 -0.140625l0 -1.203125l2.90625 0l0 -8.390625l-2.90625 2.15625l0 -1.453125l2.421875 -1.8125l1.8125 0l0 9.5l2.375 0l0 1.203125l-6.609375 0zm17.618805 2.640625l0 -10.703125l1.328125 0l0 1.546875l0.265625 0l-0.265625 0.296875q0 -0.921875 0.609375 -1.453125q0.609375 -0.53125 1.59375 -0.53125q1.21875 0 1.9375 0.796875q0.734375 0.796875 0.734375 2.1875l0 2.359375q0 0.921875 -0.328125 1.59375q-0.328125 0.671875 -0.921875 1.046875q-0.59375 0.359375 -1.421875 0.359375q-0.96875 0 -1.59375 -0.53125q-0.609375 -0.546875 -0.609375 -1.453125l0.265625 0.3125l-0.296875 0l0.03125 1.828125l0 2.34375l-1.328125 0zm3.09375 -3.640625q0.84375 0 1.3125 -0.5q0.484375 -0.5 0.484375 -1.4375l0 -2.1875q0 -0.9375 -0.484375 -1.4375q-0.46875 -0.5 -1.3125 -0.5q-0.796875 0 -1.28125 0.515625q-0.484375 0.515625 -0.484375 1.421875l0 2.1875q0 0.921875 0.484375 1.4375q0.484375 0.5 1.28125 0.5zm5.3250275 1.0l0 -8.0625l1.15625 0l0 0.96875l0.265625 0l-0.203125 0.359375q0 -0.6875 0.359375 -1.078125q0.359375 -0.390625 0.96875 -0.390625q0.671875 0 1.03125 0.5q0.375 0.5 0.375 1.40625l-0.390625 -0.796875l0.609375 0l-0.28125 0.359375q0 -0.6875 0.375 -1.078125q0.375 -0.390625 1.0 -0.390625q0.75 0 1.171875 0.578125q0.421875 0.5625 0.421875 1.5l0 6.125l-1.21875 0l0 -6.140625q0 -0.5 -0.21875 -0.78125q-0.203125 -0.28125 -0.609375 -0.28125q-0.40625 0 -0.640625 0.28125q-0.21875 0.265625 -0.21875 0.765625l0 6.15625l-1.046875 0l0 -6.140625q0 -0.515625 -0.234375 -0.78125q-0.21875 -0.28125 -0.640625 -0.28125q-0.40625 0 -0.609375 0.28125q-0.203125 0.265625 -0.203125 0.765625l0 6.15625l-1.21875 0z" fill-rule="nonzero"/><path fill="#000000" fill-opacity="0.0" d="m56.0658 350.5605l0 0c0 -31.458496 25.424587 -56.960632 56.787403 -56.960632l0 0c15.060959 0 29.505058 6.00119 40.154762 16.68338c10.649704 10.68219 16.632645 25.17035 16.632645 40.277252l0 0c0 31.458496 -25.424591 56.960632 -56.787407 56.960632l0 0c-31.362816 0 -56.787403 -25.502136 -56.787403 -56.960632z" fill-rule="evenodd"/><path stroke="#ffffff" stroke-width="2.0" stroke-linejoin="round" stroke-linecap="butt" d="m56.0658 350.5605l0 0c0 -31.458496 25.424587 -56.960632 56.787403 -56.960632l0 0c15.060959 0 29.505058 6.00119 40.154762 16.68338c10.649704 10.68219 16.632645 25.17035 16.632645 40.277252l0 0c0 31.458496 -25.424591 56.960632 -56.787407 56.960632l0 0c-31.362816 0 -56.787403 -25.502136 -56.787403 -56.960632z" fill-rule="evenodd"/><path fill="#000000" fill-opacity="0.0" d="m35.451443 350.55643l0 0c0 -42.869476 34.653866 -77.62204 77.40158 -77.62204l0 0c20.528175 0 40.21557 8.178009 54.73118 22.734955c14.51561 14.556976 22.670395 34.300446 22.670395 54.887085l0 0c0 42.869476 -34.65387 77.62204 -77.40157 77.62204l0 0c-42.74771 0 -77.40158 -34.752563 -77.40158 -77.62204z" fill-rule="evenodd"/><path stroke="#ffffff" stroke-width="2.0" stroke-linejoin="round" stroke-linecap="butt" d="m35.451443 350.55643l0 0c0 -42.869476 34.653866 -77.62204 77.40158 -77.62204l0 0c20.528175 0 40.21557 8.178009 54.73118 22.734955c14.51561 14.556976 22.670395 34.300446 22.670395 54.887085l0 0c0 42.869476 -34.65387 77.62204 -77.40157 77.62204l0 0c-42.74771 0 -77.40158 -34.752563 -77.40158 -77.62204z" fill-rule="evenodd"/><path fill="#ffffff" d="m84.449936 364.95642l0 -29.203125l4.8125 0l8.90625 25.0q-0.078125 -1.0 -0.171875 -2.453125q-0.09375 -1.46875 -0.15625 -3.078125q-0.0625 -1.625 -0.0625 -3.0625l0 -16.40625l3.484375 0l0 29.203125l-4.8125 0l-8.875 -25.0q0.078125 0.953125 0.15625 2.421875q0.078125 1.453125 0.140625 3.078125q0.0625 1.625 0.0625 3.09375l0 16.40625l-3.484375 0zm30.48436 0.40625q-3.484375 0 -5.484375 -1.78125q-2.0 -1.78125 -2.0 -4.828125q0 -3.078125 2.0 -4.828125q2.0 -1.765625 5.40625 -1.765625l6.796875 0l0 -2.203125q0 -2.046875 -1.21875 -3.140625q-1.21875 -1.09375 -3.453125 -1.09375q-1.96875 0 -3.296875 0.828125q-1.3125 0.8125 -1.515625 2.203125l-3.59375 0q0.359375 -2.84375 2.671875 -4.515625q2.328125 -1.6875 5.8125 -1.6875q3.796875 0 6.0 1.96875q2.203125 1.953125 2.203125 5.3125l0 15.125l-3.53125 0l0 -4.203125l-0.59375 0l0.59375 -0.59375q0 2.390625 -1.859375 3.796875q-1.859375 1.40625 -4.9375 1.40625zm0.875 -2.84375q2.5625 0 4.203125 -1.28125q1.640625 -1.28125 1.640625 -3.28125l0 -3.125l-6.71875 0q-1.796875 0 -2.84375 1.0q-1.03125 1.0 -1.03125 2.71875q0 1.84375 1.25 2.90625q1.265625 1.0625 3.5 1.0625z" fill-rule="nonzero"/><path fill="#ffffff" d="m135.68428 347.42517l0 -5.203125l-5.09375 0l0 -2.125l5.09375 0l0 -5.203125l2.34375 0l0 5.203125l5.09375 0l0 2.125l-5.09375 0l0 5.203125l-2.34375 0z" fill-rule="nonzero"/></g></svg>