<svg version="1.1" viewBox="0.0 0.0 402.21522309711287 254.73228346456693" fill="none" stroke="none" stroke-linecap="square" stroke-miterlimit="10" xmlns:xlink="http://www.w3.org/1999/xlink" xmlns="http://www.w3.org/2000/svg"><clipPath id="p.0"><path d="m0 0l402.2152 0l0 254.73228l-402.2152 0l0 -254.73228z" clip-rule="nonzero"/></clipPath><g clip-path="url(#p.0)"><path fill="#000000" fill-opacity="0.0" d="m0 0l402.2152 0l0 254.73228l-402.2152 0z" fill-rule="evenodd"/><path fill="#000000" fill-opacity="0.0" d="m224.18898 125.31233l0 0c0 -42.86947 34.653854 -77.62204 77.401566 -77.62204l0 0c20.528168 0 40.215576 8.178013 54.73117 22.734974c14.515625 14.556953 22.67041 34.30043 22.67041 54.88707l0 0c0 42.869476 -34.65387 77.622055 -77.40158 77.622055l0 0c-42.74771 0 -77.401566 -34.75258 -77.401566 -77.622055z" fill-rule="evenodd"/><path stroke="#ffff00" stroke-width="2.0" stroke-linejoin="round" stroke-linecap="butt" d="m224.18898 125.31233l0 0c0 -42.86947 34.653854 -77.62204 77.401566 -77.62204l0 0c20.528168 0 40.215576 8.178013 54.73117 22.734974c14.515625 14.556953 22.67041 34.30043 22.67041 54.88707l0 0c0 42.869476 -34.65387 77.622055 -77.40158 77.622055l0 0c-42.74771 0 -77.401566 -34.75258 -77.401566 -77.622055z" fill-rule="evenodd"/><path fill="#ffffff" d="m285.3906 139.71233l0 -29.234367l17.203125 0l0 3.28125l-13.6875 0l0 9.71875l12.640625 0l0 3.28125l-12.546875 0l0 12.953117l-3.609375 0z" fill-rule="nonzero"/><path fill="#ffffff" d="m309.32806 116.97796l0 -2.125l8.53125 0l0 2.125l-8.53125 0z" fill-rule="nonzero"/><path fill="#ffff00" d="m218.60236 125.31759l0 0c0 -4.200844 3.4054565 -7.6063004 7.606308 -7.6063004l0 0c2.0173187 0 3.952011 0.80137634 5.3784637 2.227829c1.4264526 1.4264603 2.227829 3.3611526 2.227829 5.3784714l0 0c0 4.200844 -3.4054565 7.6063004 -7.6062927 7.6063004l0 0c-4.2008514 0 -7.606308 -3.4054565 -7.606308 -7.6063004z" fill-rule="evenodd"/><path fill="#000000" fill-opacity="0.0" d="m16.242746 122.80573l0 0c0 -54.915367 44.383736 -99.43307 99.13386 -99.43307l0 0c26.291931 0 51.50702 10.475954 70.09822 29.123274c18.591202 18.64732 29.035645 43.93851 29.035645 70.3098l0 0c0 54.915367 -44.383743 99.43307 -99.133865 99.43307l0 0c-54.75012 0 -99.13386 -44.5177 -99.13386 -99.43307z" fill-rule="evenodd"/><path stroke="#c9daf8" stroke-width="2.0" stroke-linejoin="round" stroke-linecap="butt" stroke-dasharray="2.0,6.0" d="m16.242746 122.80573l0 0c0 -54.915367 44.383736 -99.43307 99.13386 -99.43307l0 0c26.291931 0 51.50702 10.475954 70.09822 29.123274c18.591202 18.64732 29.035645 43.93851 29.035645 70.3098l0 0c0 54.915367 -44.383743 99.43307 -99.133865 99.43307l0 0c-54.75012 0 -99.13386 -44.5177 -99.13386 -99.43307z" fill-rule="evenodd"/><path fill="#000000" fill-opacity="0.0" d="m244.80333 125.31639l0 0c0 -31.458488 25.424576 -56.960632 56.7874 -56.960632l0 0c15.060974 0 29.505066 6.00119 40.154755 16.68338c10.649719 10.68219 16.63266 25.17035 16.63266 40.277252l0 0c0 31.45848 -25.424591 56.960632 -56.787415 56.960632l0 0c-31.362823 0 -56.7874 -25.502151 -56.7874 -56.960632z" fill-rule="evenodd"/><path stroke="#ffff00" stroke-width="2.0" stroke-linejoin="round" stroke-linecap="butt" d="m244.80333 125.31639l0 0c0 -31.458488 25.424576 -56.960632 56.7874 -56.960632l0 0c15.060974 0 29.505066 6.00119 40.154755 16.68338c10.649719 10.68219 16.63266 25.17035 16.63266 40.277252l0 0c0 31.45848 -25.424591 56.960632 -56.787415 56.960632l0 0c-31.362823 0 -56.7874 -25.502151 -56.7874 -56.960632z" fill-rule="evenodd"/><path fill="#000000" fill-opacity="0.0" d="m58.58811 122.80983l0 0c0 -31.458488 25.424583 -56.960632 56.7874 -56.960632l0 0c15.060951 0 29.505058 6.00119 40.154762 16.68338c10.649704 10.68219 16.632645 25.17035 16.632645 40.277252l0 0c0 31.45848 -25.424591 56.960632 -56.787407 56.960632l0 0c-31.362816 0 -56.7874 -25.502151 -56.7874 -56.960632z" fill-rule="evenodd"/><path stroke="#c9daf8" stroke-width="2.0" stroke-linejoin="round" stroke-linecap="butt" d="m58.58811 122.80983l0 0c0 -31.458488 25.424583 -56.960632 56.7874 -56.960632l0 0c15.060951 0 29.505058 6.00119 40.154762 16.68338c10.649704 10.68219 16.632645 25.17035 16.632645 40.277252l0 0c0 31.45848 -25.424591 56.960632 -56.787407 56.960632l0 0c-31.362816 0 -56.7874 -25.502151 -56.7874 -56.960632z" fill-rule="evenodd"/><path fill="#000000" fill-opacity="0.0" d="m37.97509 122.80577l0 0c0 -42.86947 34.65387 -77.62204 77.40157 -77.62204l0 0c20.528183 0 40.215576 8.178013 54.731186 22.734974c14.51561 14.556953 22.670395 34.300423 22.670395 54.88707l0 0c0 42.869476 -34.65387 77.622055 -77.40158 77.622055l0 0c-42.747704 0 -77.40157 -34.75258 -77.40157 -77.622055z" fill-rule="evenodd"/><path stroke="#c9daf8" stroke-width="2.0" stroke-linejoin="round" stroke-linecap="butt" d="m37.97509 122.80577l0 0c0 -42.86947 34.65387 -77.62204 77.40157 -77.62204l0 0c20.528183 0 40.215576 8.178013 54.731186 22.734974c14.51561 14.556953 22.670395 34.300423 22.670395 54.88707l0 0c0 42.869476 -34.65387 77.622055 -77.40158 77.622055l0 0c-42.747704 0 -77.40157 -34.75258 -77.40157 -77.622055z" fill-rule="evenodd"/><path fill="#ffffff" d="m86.97358 137.20576l0 -29.203117l4.8125 0l8.90625 24.999992q-0.078125 -1.0 -0.171875 -2.453125q-0.09375 -1.46875 -0.15625 -3.0781174q-0.0625 -1.625 -0.0625 -3.0625l0 -16.40625l3.484375 0l0 29.203117l-4.8125 0l-8.875 -24.999992q0.078125 0.953125 0.15625 2.421875q0.078125 1.453125 0.140625 3.078125q0.0625 1.625 0.0625 3.09375l0 16.406242l-3.484375 0zm30.48436 0.40625q-3.484375 0 -5.484375 -1.78125q-2.0 -1.78125 -2.0 -4.828125q0 -3.0781174 2.0 -4.8281174q2.0 -1.765625 5.40625 -1.765625l6.796875 0l0 -2.203125q0 -2.046875 -1.21875 -3.140625q-1.21875 -1.09375 -3.453125 -1.09375q-1.96875 0 -3.296875 0.828125q-1.3125 0.8125 -1.515625 2.203125l-3.59375 0q0.359375 -2.84375 2.671875 -4.515625q2.328125 -1.6875 5.8125 -1.6875q3.796875 0 6.0 1.96875q2.203125 1.953125 2.203125 5.3125l0 15.124992l-3.53125 0l0 -4.203125l-0.59375 0l0.59375 -0.59375q0 2.390625 -1.859375 3.796875q-1.859375 1.40625 -4.9375 1.40625zm0.875 -2.84375q2.5625 0 4.203125 -1.28125q1.640625 -1.28125 1.640625 -3.28125l0 -3.1249924l-6.71875 0q-1.796875 0 -2.84375 0.9999924q-1.03125 1.0 -1.03125 2.71875q0 1.84375 1.25 2.90625q1.265625 1.0625 3.5 1.0625z" fill-rule="nonzero"/><path fill="#ffffff" d="m138.20793 119.67452l0 -5.203125l-5.09375 0l0 -2.125l5.09375 0l0 -5.203125l2.34375 0l0 5.203125l5.09375 0l0 2.125l-5.09375 0l0 5.203125l-2.34375 0z" fill-rule="nonzero"/><path fill="#cfe2f3" d="m107.77034 179.74278l0 0c0 -4.200836 3.4054565 -7.6062927 7.6063004 -7.6062927l0 0c2.0173187 0 3.952011 0.80137634 5.3784637 2.227829c1.4264603 1.4264526 2.2278366 3.361145 2.2278366 5.3784637l0 0c0 4.200836 -3.4054565 7.6062927 -7.6063004 7.6062927l0 0c-4.200844 0 -7.6063004 -3.4054565 -7.6063004 -7.6062927z" fill-rule="evenodd"/><path fill="#cfe2f3" d="m107.77034 66.456696l0 0c0 -4.200844 3.4054565 -7.6063004 7.6063004 -7.6063004l0 0c2.0173187 0 3.952011 0.8013725 5.3784637 2.2278328c1.4264603 1.4264565 2.2278366 3.3611488 2.2278366 5.3784676l0 0c0 4.200844 -3.4054565 7.6063004 -7.6063004 7.6063004l0 0c-4.200844 0 -7.6063004 -3.4054565 -7.6063004 -7.6063004z" fill-rule="evenodd"/><path fill="#cfe2f3" d="m107.77034 43.818897l0 0c0 -4.200844 3.4054565 -7.6063004 7.6063004 -7.6063004l0 0c2.0173187 0 3.952011 0.80137634 5.3784637 2.2278366c1.4264603 1.4264565 2.2278366 3.3611488 2.2278366 5.3784637l0 0c0 4.200844 -3.4054565 7.6063004 -7.6063004 7.6063004l0 0c-4.200844 0 -7.6063004 -3.4054565 -7.6063004 -7.6063004z" fill-rule="evenodd"/><path fill="#cfe2f3" d="m30.150919 125.31233l0 0c0 -4.200836 3.4054546 -7.6062927 7.6062984 -7.6062927l0 0c2.017315 0 3.9520073 0.80137634 5.3784676 2.227829c1.4264565 1.4264603 2.2278328 3.3611526 2.2278328 5.3784637l0 0c0 4.2008514 -3.4054565 7.606308 -7.6063004 7.606308l0 0c-4.200844 0 -7.6062984 -3.4054565 -7.6062984 -7.606308z" fill-rule="evenodd"/><path fill="#cfe2f3" d="m107.77034 201.80315l0 0c0 -4.200836 3.4054565 -7.6062927 7.6063004 -7.6062927l0 0c2.0173187 0 3.952011 0.80137634 5.3784637 2.227829c1.4264603 1.4264526 2.2278366 3.361145 2.2278366 5.3784637l0 0c0 4.2008514 -3.4054565 7.606308 -7.6063004 7.606308l0 0c-4.200844 0 -7.6063004 -3.4054565 -7.6063004 -7.606308z" fill-rule="evenodd"/><path fill="#cfe2f3" d="m52.644356 69.74278l0 0c0 -4.200844 3.4054565 -7.6063004 7.6063004 -7.6063004l0 0c2.017315 0 3.952011 0.80137634 5.3784637 2.2278366c1.4264603 1.4264526 2.2278366 3.361145 2.2278366 5.3784637l0 0c0 4.200844 -3.4054565 7.6063004 -7.6063004 7.6063004l0 0c-4.200844 0 -7.6063004 -3.4054565 -7.6063004 -7.6063004z" fill-rule="evenodd"/><path fill="#cfe2f3" d="m52.644356 179.74278l0 0c0 -4.200836 3.4054565 -7.6062927 7.6063004 -7.6062927l0 0c2.017315 0 3.952011 0.80137634 5.3784637 2.227829c1.4264603 1.4264526 2.2278366 3.361145 2.2278366 5.3784637l0 0c0 4.200836 -3.4054565 7.6062927 -7.6063004 7.6062927l0 0c-4.200844 0 -7.6063004 -3.4054565 -7.6063004 -7.6062927z" fill-rule="evenodd"/><path fill="#cfe2f3" d="m165.98032 66.456696l0 0c0 -4.200844 3.4054565 -7.6063004 7.6062927 -7.6063004l0 0c2.0173187 0 3.952011 0.8013725 5.3784637 2.2278328c1.4264679 1.4264565 2.2278442 3.3611488 2.2278442 5.3784676l0 0c0 4.200844 -3.4054565 7.6063004 -7.606308 7.6063004l0 0c-4.200836 0 -7.6062927 -3.4054565 -7.6062927 -7.6063004z" fill-rule="evenodd"/><path fill="#cfe2f3" d="m186.0105 122.80577l0 0c0 -4.200836 3.4054565 -7.6062927 7.6062927 -7.6062927l0 0c2.0173187 0 3.952011 0.80137634 5.378479 2.227829c1.4264526 1.4264603 2.227829 3.3611526 2.227829 5.3784637l0 0c0 4.200844 -3.4054565 7.606308 -7.606308 7.606308l0 0c-4.200836 0 -7.6062927 -3.4054642 -7.6062927 -7.606308z" fill-rule="evenodd"/><path fill="#cfe2f3" d="m161.41995 183.11023l0 0c0 -4.200836 3.4054565 -7.6062927 7.6062927 -7.6062927l0 0c2.0173187 0 3.952011 0.80137634 5.3784637 2.227829c1.4264679 1.4264679 2.2278442 3.3611603 2.2278442 5.3784637l0 0c0 4.2008514 -3.4054565 7.606308 -7.606308 7.606308l0 0c-4.200836 0 -7.6062927 -3.4054565 -7.6062927 -7.606308z" fill-rule="evenodd"/><path fill="#000000" fill-opacity="0.0" d="m165.98032 23.372704l93.63779 14.110237" fill-rule="evenodd"/><path stroke="#ffffff" stroke-width="1.0" stroke-linejoin="round" stroke-linecap="butt" d="m165.98032 23.372704l87.70479 13.21619" fill-rule="evenodd"/><path fill="#ffffff" stroke="#ffffff" stroke-width="1.0" stroke-linecap="butt" d="m253.43898 38.222187l4.733536 -0.95708084l-4.2413025 -2.3095016z" fill-rule="evenodd"/><path fill="#ffff00" d="m293.98425 69.74278l0 0c0 -4.200844 3.4054565 -7.6063004 7.6062927 -7.6063004l0 0c2.017334 0 3.9520264 0.80137634 5.378479 2.2278366c1.4264526 1.4264526 2.2278137 3.361145 2.2278137 5.3784637l0 0c0 4.200844 -3.4054565 7.6063004 -7.6062927 7.6063004l0 0c-4.200836 0 -7.6062927 -3.4054565 -7.6062927 -7.6063004z" fill-rule="evenodd"/><path fill="#ffff00" d="m293.98425 183.11023l0 0c0 -4.200836 3.4054565 -7.6062927 7.6062927 -7.6062927l0 0c2.017334 0 3.9520264 0.80137634 5.378479 2.227829c1.4264526 1.4264679 2.2278137 3.3611603 2.2278137 5.3784637l0 0c0 4.2008514 -3.4054565 7.606308 -7.6062927 7.606308l0 0c-4.200836 0 -7.6062927 -3.4054565 -7.6062927 -7.606308z" fill-rule="evenodd"/><path fill="#ffff00" d="m372.14172 125.31759l0 0c0 -4.200844 3.4054565 -7.6063004 7.6062927 -7.6063004l0 0c2.017334 0 3.9520264 0.80137634 5.378479 2.227829c1.4264526 1.4264603 2.2278442 3.3611526 2.2278442 5.3784714l0 0c0 4.200844 -3.4054565 7.6063004 -7.6063232 7.6063004l0 0c-4.200836 0 -7.6062927 -3.4054565 -7.6062927 -7.6063004z" fill-rule="evenodd"/><path fill="#ffff00" d="m347.87665 69.74278l0 0c0 -4.200844 3.4054565 -7.6063004 7.6062927 -7.6063004l0 0c2.0173035 0 3.9519958 0.80137634 5.378479 2.2278366c1.4264526 1.4264526 2.2278137 3.361145 2.2278137 5.3784637l0 0c0 4.200844 -3.4054565 7.6063004 -7.6062927 7.6063004l0 0c-4.200836 0 -7.6062927 -3.4054565 -7.6062927 -7.6063004z" fill-rule="evenodd"/><path fill="#ffff00" d="m293.98425 201.80315l0 0c0 -4.200836 3.4054565 -7.6062927 7.6062927 -7.6062927l0 0c2.017334 0 3.9520264 0.80137634 5.378479 2.227829c1.4264526 1.4264526 2.2278137 3.361145 2.2278137 5.3784637l0 0c0 4.2008514 -3.4054565 7.606308 -7.6062927 7.606308l0 0c-4.200836 0 -7.6062927 -3.4054565 -7.6062927 -7.606308z" fill-rule="evenodd"/><path fill="#ffff00" d="m233.81496 174.67192l0 0c0 -4.2008514 3.4054565 -7.606308 7.606308 -7.606308l0 0c2.0173187 0 3.9519958 0.80137634 5.3784637 2.2278442c1.4264526 1.4264526 2.227829 3.361145 2.227829 5.3784637l0 0c0 4.200836 -3.4054565 7.6062927 -7.6062927 7.6062927l0 0c-4.2008514 0 -7.606308 -3.4054565 -7.606308 -7.6062927z" fill-rule="evenodd"/><path fill="#ffff00" d="m347.87665 179.74278l0 0c0 -4.200836 3.4054565 -7.6062927 7.6062927 -7.6062927l0 0c2.0173035 0 3.9519958 0.80137634 5.378479 2.227829c1.4264526 1.4264526 2.2278137 3.361145 2.2278137 5.3784637l0 0c0 4.200836 -3.4054565 7.6062927 -7.6062927 7.6062927l0 0c-4.200836 0 -7.6062927 -3.4054565 -7.6062927 -7.6062927z" fill-rule="evenodd"/><path fill="#cfe2f3" d="m293.98425 48.83202l0 0c0 -4.20084 3.4054565 -7.6062965 7.6062927 -7.6062965l0 0c2.017334 0 3.9520264 0.8013725 5.378479 2.2278328c1.4264526 1.4264565 2.2278137 3.3611488 2.2278137 5.3784637l0 0c0 4.200844 -3.4054565 7.6063004 -7.6062927 7.6063004l0 0c-4.200836 0 -7.6062927 -3.4054565 -7.6062927 -7.6063004z" fill-rule="evenodd"/><path fill="#ffff00" d="m235.77428 69.74278l0 0c0 -4.200844 3.4054565 -7.6063004 7.606308 -7.6063004l0 0c2.0173035 0 3.9519958 0.80137634 5.3784637 2.2278366c1.4264526 1.4264526 2.227829 3.361145 2.227829 5.3784637l0 0c0 4.200844 -3.4054565 7.6063004 -7.6062927 7.6063004l0 0c-4.2008514 0 -7.606308 -3.4054565 -7.606308 -7.6063004z" fill-rule="evenodd"/><path fill="#000000" fill-opacity="0.0" d="m107.77034 21.181103l0 0c0 -4.200844 3.4054565 -7.6062994 7.6063004 -7.6062994l0 0c2.0173187 0 3.952011 0.8013754 5.3784637 2.2278328c1.4264603 1.4264574 2.2278366 3.3611498 2.2278366 5.3784666l0 0c0 4.200842 -3.4054565 7.6062984 -7.6063004 7.6062984l0 0c-4.200844 0 -7.6063004 -3.4054565 -7.6063004 -7.6062984z" fill-rule="evenodd"/><path stroke="#c9daf8" stroke-width="1.0" stroke-linejoin="round" stroke-linecap="butt" stroke-dasharray="4.0,3.0" d="m107.77034 21.181103l0 0c0 -4.200844 3.4054565 -7.6062994 7.6063004 -7.6062994l0 0c2.0173187 0 3.952011 0.8013754 5.3784637 2.2278328c1.4264603 1.4264574 2.2278366 3.3611498 2.2278366 5.3784666l0 0c0 4.200842 -3.4054565 7.6062984 -7.6063004 7.6062984l0 0c-4.200844 0 -7.6063004 -3.4054565 -7.6063004 -7.6062984z" fill-rule="evenodd"/><path fill="#000000" fill-opacity="0.0" d="m194.05905 0l37.480316 0l0 28.787401l-37.480316 0z" fill-rule="evenodd"/><path fill="#ffffff" d="m207.85593 24.51625q-1.03125 0 -1.8125 -0.40625q-0.78125 -0.421875 -1.203125 -1.171875q-0.421875 -0.765625 -0.421875 -1.78125l0 -2.390625q0 -1.03125 0.421875 -1.78125q0.421875 -0.75 1.203125 -1.15625q0.78125 -0.421875 1.8125 -0.421875q1.046875 0 1.8125 0.421875q0.78125 0.40625 1.203125 1.15625q0.421875 0.75 0.421875 1.78125l0 1.546875l-5.46875 0l0 0.84375q0 1.046875 0.53125 1.59375q0.53125 0.546875 1.5 0.546875q0.828125 0 1.34375 -0.28125q0.515625 -0.296875 0.625 -0.890625l1.4375 0q-0.140625 1.09375 -1.078125 1.75q-0.9375 0.640625 -2.328125 0.640625zm2.03125 -5.171875l0 -0.578125q0 -1.046875 -0.515625 -1.609375q-0.515625 -0.5625 -1.515625 -0.5625q-0.96875 0 -1.5 0.5625q-0.53125 0.5625 -0.53125 1.609375l0 0.453125l4.171875 0l-0.109375 0.125z" fill-rule="nonzero"/><path fill="#ffffff" d="m214.14345 15.266251l0 -0.84375l3.421875 0l0 0.84375l-3.421875 0z" fill-rule="nonzero"/><path fill="#000000" fill-opacity="0.0" d="m58.589188 223.83464l113.5748 0l0 35.559067l-113.5748 0z" fill-rule="evenodd"/><path fill="#ffffff" d="m76.60494 245.63464l0 -1.09375l2.640625 0l0 -7.640625l-2.640625 1.984375l0 -1.34375l2.203125 -1.640625l1.625 0l0 8.640625l2.171875 0l0 1.09375l-6.0 0zm7.9968414 0l0 -1.09375l2.640625 0l0 -7.640625l-2.640625 1.984375l0 -1.34375l2.203125 -1.640625l1.625 0l0 8.640625l2.171875 0l0 1.09375l-6.0 0zm10.793716 0.140625q-0.875 0 -1.515625 -0.34375q-0.640625 -0.359375 -1.0 -0.984375q-0.34375 -0.640625 -0.34375 -1.484375l0 -2.0q0 -0.84375 0.34375 -1.46875q0.359375 -0.625 1.0 -0.96875q0.640625 -0.359375 1.515625 -0.359375q0.859375 0 1.5 0.359375q0.65625 0.34375 1.0 0.96875q0.359375 0.625 0.359375 1.46875l0 1.296875l-4.546875 0l0 0.703125q0 0.875 0.4375 1.34375q0.4375 0.453125 1.25 0.453125q0.6875 0 1.109375 -0.25q0.4375 -0.25 0.53125 -0.734375l1.203125 0q-0.125 0.90625 -0.90625 1.453125q-0.78125 0.546875 -1.9375 0.546875zm1.6875 -4.3125l0 -0.5q0 -0.859375 -0.4375 -1.328125q-0.421875 -0.46875 -1.25 -0.46875q-0.8125 0 -1.25 0.46875q-0.4375 0.46875 -0.4375 1.328125l0 0.390625l3.46875 0l-0.09375 0.109375z" fill-rule="nonzero"/><path fill="#ffffff" d="m100.64234 238.05652l0 -0.703125l2.828125 0l0 0.703125l-2.828125 0z" fill-rule="nonzero"/><path fill="#ffffff" d="m113.15159 245.1659l2.15625 -2.734375q0.125 -0.171875 0.296875 -0.328125q0.1875 -0.171875 0.296875 -0.265625l0 -0.125q-0.171875 0.015625 -0.4375 0.046875q-0.265625 0.015625 -0.484375 0.015625l-4.40625 0l0 -1.078125l4.40625 0q0.21875 0 0.484375 0.03125q0.265625 0.015625 0.4375 0.046875l0 -0.125q-0.09375 -0.078125 -0.265625 -0.25q-0.15625 -0.171875 -0.328125 -0.375l-2.15625 -2.71875l1.390625 0l3.09375 3.9375l-3.078125 3.921875l-1.40625 0zm14.0874405 0.46875l0 -1.09375l2.640625 0l0 -7.640625l-2.640625 1.984375l0 -1.34375l2.203125 -1.640625l1.625 0l0 8.640625l2.171875 0l0 1.09375l-6.0 0zm10.793716 0.140625q-0.890625 0 -1.5625 -0.359375q-0.65625 -0.359375 -1.015625 -1.0q-0.359375 -0.640625 -0.359375 -1.515625l0 -4.265625q0 -0.875 0.359375 -1.515625q0.359375 -0.640625 1.015625 -0.984375q0.671875 -0.359375 1.5625 -0.359375q0.90625 0 1.546875 0.359375q0.65625 0.34375 1.015625 0.984375q0.375 0.640625 0.375 1.515625l0 4.265625q0 0.875 -0.375 1.515625q-0.359375 0.640625 -1.015625 1.0q-0.65625 0.359375 -1.546875 0.359375zm0 -1.03125q0.796875 0 1.28125 -0.515625q0.484375 -0.515625 0.484375 -1.328125l0 -4.265625q0 -0.8125 -0.484375 -1.328125q-0.484375 -0.515625 -1.28125 -0.515625q-0.796875 0 -1.296875 0.515625q-0.484375 0.515625 -0.484375 1.328125l0 4.265625q0 0.8125 0.484375 1.328125q0.5 0.515625 1.296875 0.515625zm0 -3.1875q-0.359375 0 -0.578125 -0.21875q-0.21875 -0.234375 -0.21875 -0.609375q0 -0.359375 0.21875 -0.578125q0.21875 -0.21875 0.578125 -0.21875q0.359375 0 0.578125 0.21875q0.21875 0.21875 0.21875 0.578125q0 0.375 -0.21875 0.609375q-0.21875 0.21875 -0.578125 0.21875zm7.9968414 4.21875q-0.875 0 -1.515625 -0.34375q-0.640625 -0.359375 -1.0 -0.984375q-0.34375 -0.640625 -0.34375 -1.484375l0 -2.0q0 -0.84375 0.34375 -1.46875q0.359375 -0.625 1.0 -0.96875q0.640625 -0.359375 1.515625 -0.359375q0.859375 0 1.5 0.359375q0.65625 0.34375 1.0 0.96875q0.359375 0.625 0.359375 1.46875l0 1.296875l-4.546875 0l0 0.703125q0 0.875 0.4375 1.34375q0.4375 0.453125 1.25 0.453125q0.6875 0 1.109375 -0.25q0.4375 -0.25 0.53125 -0.734375l1.203125 0q-0.125 0.90625 -0.90625 1.453125q-0.78125 0.546875 -1.9375 0.546875zm1.6875 -4.3125l0 -0.5q0 -0.859375 -0.4375 -1.328125q-0.421875 -0.46875 -1.25 -0.46875q-0.8125 0 -1.25 0.46875q-0.4375 0.46875 -0.4375 1.328125l0 0.390625l3.46875 0l-0.09375 0.109375z" fill-rule="nonzero"/><path fill="#ffffff" d="m151.27643 238.05652l0 -0.703125l2.828125 0l0 0.703125l-2.828125 0z" fill-rule="nonzero"/><path fill="#000000" fill-opacity="0.0" d="m244.80446 223.83464l113.574814 0l0 35.559067l-113.574814 0z" fill-rule="evenodd"/><path fill="#ffffff" d="m268.1155 245.63464l2.75 -4.421875l-0.046875 -0.046875q-0.265625 0.375 -0.703125 0.578125q-0.4375 0.203125 -0.984375 0.203125q-0.78125 0 -1.375 -0.375q-0.59375 -0.375 -0.921875 -1.0625q-0.3125 -0.6875 -0.3125 -1.609375q0 -0.9375 0.375 -1.640625q0.390625 -0.703125 1.078125 -1.09375q0.703125 -0.390625 1.625 -0.390625q0.9375 0 1.625 0.390625q0.703125 0.390625 1.09375 1.09375q0.390625 0.703125 0.390625 1.640625q0 0.734375 -0.21875 1.453125q-0.203125 0.703125 -0.609375 1.34375l-2.4375 3.9375l-1.328125 0zm1.5 -4.671875q0.84375 0 1.359375 -0.5625q0.53125 -0.5625 0.53125 -1.5q0 -0.921875 -0.53125 -1.484375q-0.515625 -0.578125 -1.359375 -0.578125q-0.859375 0 -1.375 0.578125q-0.515625 0.5625 -0.515625 1.484375q0 0.9375 0.515625 1.5q0.515625 0.5625 1.375 0.5625zm7.9968567 4.8125q-0.875 0 -1.515625 -0.34375q-0.640625 -0.359375 -1.0 -0.984375q-0.34375 -0.640625 -0.34375 -1.484375l0 -2.0q0 -0.84375 0.34375 -1.46875q0.359375 -0.625 1.0 -0.96875q0.640625 -0.359375 1.515625 -0.359375q0.859375 0 1.5 0.359375q0.65625 0.34375 1.0 0.96875q0.359375 0.625 0.359375 1.46875l0 1.296875l-4.546875 0l0 0.703125q0 0.875 0.4375 1.34375q0.4375 0.453125 1.25 0.453125q0.6875 0 1.109375 -0.25q0.4375 -0.25 0.53125 -0.734375l1.203125 0q-0.125 0.90625 -0.90625 1.453125q-0.78125 0.546875 -1.9375 0.546875zm1.6875 -4.3125l0 -0.5q0 -0.859375 -0.4375 -1.328125q-0.421875 -0.46875 -1.25 -0.46875q-0.8125 0 -1.25 0.46875q-0.4375 0.46875 -0.4375 1.328125l0 0.390625l3.46875 0l-0.09375 0.109375z" fill-rule="nonzero"/><path fill="#ffffff" d="m282.8592 238.05652l0 -0.703125l2.828125 0l0 0.703125l-2.828125 0z" fill-rule="nonzero"/><path fill="#ffffff" d="m295.36844 245.1659l2.15625 -2.734375q0.125 -0.171875 0.296875 -0.328125q0.1875 -0.171875 0.296875 -0.265625l0 -0.125q-0.171875 0.015625 -0.4375 0.046875q-0.265625 0.015625 -0.484375 0.015625l-4.40625 0l0 -1.078125l4.40625 0q0.21875 0 0.484375 0.03125q0.265625 0.015625 0.4375 0.046875l0 -0.125q-0.09375 -0.078125 -0.265625 -0.25q-0.15625 -0.171875 -0.328125 -0.375l-2.15625 -2.71875l1.390625 0l3.09375 3.9375l-3.078125 3.921875l-1.40625 0zm14.087433 0.46875l0 -1.09375l2.640625 0l0 -7.640625l-2.640625 1.984375l0 -1.34375l2.203125 -1.640625l1.625 0l0 8.640625l2.171875 0l0 1.09375l-6.0 0zm10.793732 0.140625q-0.890625 0 -1.5625 -0.359375q-0.65625 -0.359375 -1.015625 -1.0q-0.359375 -0.640625 -0.359375 -1.515625l0 -4.265625q0 -0.875 0.359375 -1.515625q0.359375 -0.640625 1.015625 -0.984375q0.671875 -0.359375 1.5625 -0.359375q0.90625 0 1.546875 0.359375q0.65625 0.34375 1.015625 0.984375q0.375 0.640625 0.375 1.515625l0 4.265625q0 0.875 -0.375 1.515625q-0.359375 0.640625 -1.015625 1.0q-0.65625 0.359375 -1.546875 0.359375zm0 -1.03125q0.796875 0 1.28125 -0.515625q0.484375 -0.515625 0.484375 -1.328125l0 -4.265625q0 -0.8125 -0.484375 -1.328125q-0.484375 -0.515625 -1.28125 -0.515625q-0.796875 0 -1.296875 0.515625q-0.484375 0.515625 -0.484375 1.328125l0 4.265625q0 0.8125 0.484375 1.328125q0.5 0.515625 1.296875 0.515625zm0 -3.1875q-0.359375 0 -0.578125 -0.21875q-0.21875 -0.234375 -0.21875 -0.609375q0 -0.359375 0.21875 -0.578125q0.21875 -0.21875 0.578125 -0.21875q0.359375 0 0.578125 0.21875q0.21875 0.21875 0.21875 0.578125q0 0.375 -0.21875 0.609375q-0.21875 0.21875 -0.578125 0.21875zm7.996826 4.21875q-0.875 0 -1.515625 -0.34375q-0.640625 -0.359375 -1.0 -0.984375q-0.34375 -0.640625 -0.34375 -1.484375l0 -2.0q0 -0.84375 0.34375 -1.46875q0.359375 -0.625 1.0 -0.96875q0.640625 -0.359375 1.515625 -0.359375q0.859375 0 1.5 0.359375q0.65625 0.34375 1.0 0.96875q0.359375 0.625 0.359375 1.46875l0 1.296875l-4.546875 0l0 0.703125q0 0.875 0.4375 1.34375q0.4375 0.453125 1.25 0.453125q0.6875 0 1.109375 -0.25q0.4375 -0.25 0.53125 -0.734375l1.203125 0q-0.125 0.90625 -0.90625 1.453125q-0.78125 0.546875 -1.9375 0.546875zm1.6875 -4.3125l0 -0.5q0 -0.859375 -0.4375 -1.328125q-0.421875 -0.46875 -1.25 -0.46875q-0.8125 0 -1.25 0.46875q-0.4375 0.46875 -0.4375 1.328125l0 0.390625l3.46875 0l-0.09375 0.109375z" fill-rule="nonzero"/><path fill="#ffffff" d="m333.4933 238.05652l0 -0.703125l2.828125 0l0 0.703125l-2.828125 0z" fill-rule="nonzero"/></g></svg>